<svg width="240" height="240" viewBox="0 0 240 240" fill="none" xmlns="http://www.w3.org/2000/svg">
  <defs>
    <linearGradient id="bg" x1="28" y1="20" x2="220" y2="220" gradientUnits="userSpaceOnUse">
      <stop stop-color="#22C55E"/>
      <stop offset="1" stop-color="#14B8A6"/>
    </linearGradient>
    <linearGradient id="book" x1="72" y1="74" x2="170" y2="168" gradientUnits="userSpaceOnUse">
      <stop stop-color="#FFFFFF"/>
      <stop offset="1" stop-color="#DCFCE7"/>
    </linearGradient>
  </defs>

  <rect x="20" y="20" width="200" height="200" rx="48" fill="url(#bg)"/>

  <path d="M72 78C72 72.4772 76.4772 68 82 68H150C157.732 68 164 74.268 164 82V162H90C80.0589 162 72 153.941 72 144V78Z" fill="url(#book)"/>
  <path d="M164 162H96C89.3726 162 84 167.373 84 174V174" stroke="#166534" stroke-width="8" stroke-linecap="round"/>
  <path d="M96 98H142" stroke="#16A34A" stroke-width="8" stroke-linecap="round"/>
  <path d="M96 120H142" stroke="#16A34A" stroke-width="8" stroke-linecap="round"/>
  <circle cx="86" cy="98" r="4" fill="#16A34A"/>
  <circle cx="86" cy="120" r="4" fill="#16A34A"/>

  <path d="M120 176L128 192L146 194L133 206L136 224L120 216L104 224L107 206L94 194L112 192L120 176Z" fill="#FACC15"/>
</svg>