<svg width="920" height="220" viewBox="0 0 920 220" fill="none" xmlns="http://www.w3.org/2000/svg">
  <rect width="920" height="220" rx="20" fill="#0F172A"/>

  <rect x="24" y="30" width="208" height="160" rx="14" fill="#111827" stroke="#334155"/>
  <rect x="48" y="56" width="24" height="24" rx="6" fill="#22C55E"/>
  <rect x="84" y="58" width="124" height="10" rx="5" fill="#E2E8F0"/>
  <rect x="84" y="76" width="90" height="8" rx="4" fill="#94A3B8"/>
  <rect x="48" y="104" width="160" height="10" rx="5" fill="#334155"/>
  <rect x="48" y="122" width="144" height="10" rx="5" fill="#334155"/>
  <rect x="48" y="140" width="118" height="10" rx="5" fill="#334155"/>
  <text x="48" y="178" fill="#86EFAC" font-family="Arial, sans-serif" font-size="14" font-weight="700">Projects</text>

  <rect x="256" y="30" width="208" height="160" rx="14" fill="#111827" stroke="#334155"/>
  <rect x="280" y="56" width="24" height="24" rx="12" fill="#14B8A6"/>
  <rect x="316" y="58" width="124" height="10" rx="5" fill="#E2E8F0"/>
  <rect x="316" y="76" width="80" height="8" rx="4" fill="#94A3B8"/>
  <rect x="280" y="108" width="158" height="8" rx="4" fill="#334155"/>
  <rect x="280" y="124" width="158" height="8" rx="4" fill="#334155"/>
  <rect x="280" y="140" width="102" height="8" rx="4" fill="#334155"/>
  <text x="280" y="178" fill="#5EEAD4" font-family="Arial, sans-serif" font-size="14" font-weight="700">Logs</text>

  <rect x="488" y="30" width="208" height="160" rx="14" fill="#111827" stroke="#334155"/>
  <rect x="512" y="56" width="24" height="24" rx="6" fill="#60A5FA"/>
  <rect x="548" y="58" width="124" height="10" rx="5" fill="#E2E8F0"/>
  <rect x="548" y="76" width="96" height="8" rx="4" fill="#94A3B8"/>
  <rect x="512" y="108" width="56" height="26" rx="8" fill="#1E293B"/>
  <rect x="576" y="108" width="56" height="26" rx="8" fill="#1E293B"/>
  <rect x="640" y="108" width="32" height="26" rx="8" fill="#1E293B"/>
  <text x="512" y="178" fill="#93C5FD" font-family="Arial, sans-serif" font-size="14" font-weight="700">Resources</text>

  <rect x="720" y="30" width="176" height="160" rx="14" fill="#111827" stroke="#334155"/>
  <rect x="744" y="146" width="16" height="24" rx="3" fill="#22C55E"/>
  <rect x="766" y="130" width="16" height="40" rx="3" fill="#34D399"/>
  <rect x="788" y="112" width="16" height="58" rx="3" fill="#2DD4BF"/>
  <rect x="810" y="92" width="16" height="78" rx="3" fill="#14B8A6"/>
  <rect x="832" y="68" width="16" height="102" rx="3" fill="#0EA5E9"/>
  <text x="744" y="178" fill="#67E8F9" font-family="Arial, sans-serif" font-size="14" font-weight="700">Dashboard</text>
</svg>